<svg width="259" height="89" viewBox="0 0 259 89" fill="none" xmlns="http://www.w3.org/2000/svg">
<g clip-path="url(#clip0_466_911)">
<path d="M33.1327 73.4676C34.5802 68.3077 39.3284 64.5343 44.9769 64.5343C50.6254 64.5343 55.3736 68.3077 56.821 73.4676V49.5986L83.51 23.0267C81.7802 23.9569 79.7856 24.4834 77.6851 24.4834C70.8892 24.4834 65.382 19.0076 65.382 12.2505C65.382 10.0391 65.9821 7.95058 67.0236 6.1604L44.9769 28.0462L23.0185 6.21305C24.0246 7.98568 24.6071 10.0391 24.6071 12.233C24.6071 18.99 19.0998 24.4659 12.304 24.4659C10.1505 24.4659 8.12062 23.9218 6.35547 22.9389L33.1327 49.581V73.4676Z" fill="#1E2737"/>
<path d="M12.3031 24.4658C19.0979 24.4658 24.6061 18.9889 24.6061 12.2329C24.6061 5.47685 19.0979 0 12.3031 0C5.50827 0 0 5.47685 0 12.2329C0 18.9889 5.50827 24.4658 12.3031 24.4658Z" fill="#B3BCCD"/>
<path d="M77.7015 24.4658C84.4963 24.4658 90.0046 18.9889 90.0046 12.2329C90.0046 5.47685 84.4963 0 77.7015 0C70.9067 0 65.3984 5.47685 65.3984 12.2329C65.3984 18.9889 70.9067 24.4658 77.7015 24.4658Z" fill="#DCDC5B"/>
<path d="M44.9769 89C51.7717 89 57.28 83.5231 57.28 76.7671C57.28 70.011 51.7717 64.5342 44.9769 64.5342C38.1821 64.5342 32.6738 70.011 32.6738 76.7671C32.6738 83.5231 38.1821 89 44.9769 89Z" fill="#EE6047"/>
</g>
<defs>
<clipPath id="clip0_466_911">
<rect width="91" height="89" fill="white"/>
</clipPath>
</defs>
</svg>
